<?xml version="1.0" encoding="UTF-8" standalone="no" ?>
<!DOCTYPE svg PUBLIC "-//W3C//DTD SVG 1.1//EN" "http://www.w3.org/Graphics/SVG/1.1/DTD/svg11.dtd">
<svg xmlns="http://www.w3.org/2000/svg" xmlns:xlink="http://www.w3.org/1999/xlink" version="1.1" width="500" height="500" viewBox="0 0 500 500" xml:space="preserve">
<desc>Created with Fabric.js 4.6.0</desc>
<defs>
</defs>
<g transform="matrix(1 0 0 1 164.9 267.5)" id="kOWnPDpB4TmUReiDN28Eb"  >
<path style="stroke: none; stroke-width: 1; stroke-dasharray: none; stroke-linecap: butt; stroke-dashoffset: 0; stroke-linejoin: miter; stroke-miterlimit: 4; fill: rgb(1,103,243); fill-rule: nonzero; opacity: 1;" vector-effect="non-scaling-stroke"  transform=" translate(-37.4, -43.1)" d="M 32.2 43.1 C 32.2 46 34.5 48.300000000000004 37.400000000000006 48.300000000000004 C 40.30000000000001 48.300000000000004 42.60000000000001 46.00000000000001 42.60000000000001 43.1 C 42.60000000000001 40.199999999999996 40.20000000000001 37.9 37.400000000000006 37.9 C 34.6 37.9 32.2 40.3 32.2 43.1 z M 35.6 43.1 C 35.6 42.1 36.4 41.300000000000004 37.4 41.300000000000004 C 38.4 41.300000000000004 39.199999999999996 42.1 39.199999999999996 43.1 C 39.199999999999996 44.1 38.4 45 37.4 45 C 36.4 45 35.6 44.1 35.6 43.1 z" stroke-linecap="round" />
</g>
<g transform="matrix(1 0 0 1 176.9 267.5)" id="ouchzE9fObd-n55KiNvsx"  >
<path style="stroke: none; stroke-width: 1; stroke-dasharray: none; stroke-linecap: butt; stroke-dashoffset: 0; stroke-linejoin: miter; stroke-miterlimit: 4; fill: rgb(1,103,243); fill-rule: nonzero; opacity: 1;" vector-effect="non-scaling-stroke"  transform=" translate(-49.4, -43.1)" d="M 44.2 43.1 C 44.2 46 46.5 48.300000000000004 49.400000000000006 48.300000000000004 C 52.30000000000001 48.300000000000004 54.60000000000001 46.00000000000001 54.60000000000001 43.1 C 54.60000000000001 40.199999999999996 52.20000000000001 37.9 49.400000000000006 37.9 C 46.6 37.9 44.2 40.3 44.2 43.1 z M 47.6 43.1 C 47.6 42.1 48.4 41.300000000000004 49.4 41.300000000000004 C 50.4 41.300000000000004 51.199999999999996 42.1 51.199999999999996 43.1 C 51.199999999999996 44.1 50.4 45 49.4 45 C 48.4 45 47.6 44.1 47.6 43.1 z" stroke-linecap="round" />
</g>
<g transform="matrix(1 0 0 1 166.29 243.65)" id="LvMJppho1A-sdP82BuJP3"  >
<path style="stroke: none; stroke-width: 1; stroke-dasharray: none; stroke-linecap: butt; stroke-dashoffset: 0; stroke-linejoin: miter; stroke-miterlimit: 4; fill: rgb(1,103,243); fill-rule: nonzero; opacity: 1;" vector-effect="non-scaling-stroke"  transform=" translate(-38.79, -19.25)" d="M 61.8 16.1 C 61.4 15.500000000000002 60.4 15.100000000000001 59.599999999999994 15.100000000000001 L 27.599999999999994 15.100000000000001 L 25.2 4.7 C 25 3.7 24.099999999999998 2.9000000000000004 23.099999999999998 2.9000000000000004 L 17.199999999999996 2.9000000000000004 C 15.999999999999996 2.9000000000000004 15.099999999999996 3.7 15.099999999999996 4.9 C 15.099999999999996 6.1000000000000005 15.9 7 17.2 7 L 21.5 7 L 27.4 33.8 C 27.599999999999998 34.8 28.5 35.599999999999994 29.5 35.599999999999994 L 54.7 35.599999999999994 C 56.1 35.599999999999994 57.300000000000004 34.8 57.5 33.39999999999999 L 62.2 18.89999999999999 C 62.7 17.7 62.5 16.7 61.8 16.1 z M 37.9 31.5 L 31.4 31.5 L 30.2 25.7 L 37.8 25.7 L 37.8 31.5 L 37.9 31.5 z M 37.9 23.7 L 29.9 23.7 L 29 19.2 L 37.9 19.2 L 37.9 23.7 z M 46.6 31.5 L 39.7 31.5 L 39.7 25.7 L 46.6 25.7 L 46.6 31.5 z M 46.6 23.7 L 39.7 23.7 L 39.7 19.2 L 46.6 19.2 L 46.6 23.7 z M 53.9 31.5 L 48.6 31.5 L 48.6 25.7 L 55.800000000000004 25.7 L 53.9 31.5 z M 56.4 23.7 L 48.5 23.7 L 48.5 19.2 L 57.9 19.2 L 56.4 23.7 z" stroke-linecap="round" />
</g>
<g transform="matrix(1 0 0 1 141.2 246.95)" id="AM38J8i8yu53bGLuIqmrH"  >
<path style="stroke: none; stroke-width: 1; stroke-dasharray: none; stroke-linecap: butt; stroke-dashoffset: 0; stroke-linejoin: miter; stroke-miterlimit: 4; fill: rgb(1,103,243); fill-rule: nonzero; opacity: 1;" vector-effect="non-scaling-stroke"  transform=" translate(-13.7, -22.55)" d="M 24.9 35.4 C 24.9 35.5 24.9 35.6 24.799999999999997 35.6 L 19.799999999999997 35.6 C 18.999999999999996 35.6 18.299999999999997 34.9 18.299999999999997 34.1 C 18.299999999999997 33.7 18.499999999999996 33.300000000000004 18.699999999999996 33.1 C 18.999999999999996 32.800000000000004 19.299999999999997 32.7 19.699999999999996 32.7 L 21.499999999999996 32.7 C 21.899999999999995 32.7 22.299999999999997 32.5 22.499999999999996 32.300000000000004 C 22.699999999999996 32.10000000000001 22.799999999999997 31.900000000000006 22.899999999999995 31.700000000000003 C 23.099999999999994 30.700000000000003 22.299999999999994 29.800000000000004 21.299999999999994 29.800000000000004 L 10.5 29.800000000000004 C 9.7 29.800000000000004 9 29.100000000000005 9 28.300000000000004 C 9 27.900000000000006 9.2 27.500000000000004 9.4 27.300000000000004 C 9.700000000000001 27.000000000000004 10 26.900000000000006 10.4 26.900000000000006 L 15.4 26.900000000000006 C 15.8 26.900000000000006 16.2 26.700000000000006 16.4 26.500000000000007 C 16.599999999999998 26.300000000000008 16.7 26.10000000000001 16.799999999999997 25.900000000000006 C 16.999999999999996 24.900000000000006 16.199999999999996 24.000000000000007 15.199999999999998 24.000000000000007 L 13.699999999999998 24.000000000000007 C 12.899999999999997 24.000000000000007 12.199999999999998 23.300000000000008 12.199999999999998 22.500000000000007 C 12.199999999999998 22.10000000000001 12.399999999999997 21.700000000000006 12.599999999999998 21.500000000000007 C 12.899999999999999 21.200000000000006 13.199999999999998 21.10000000000001 13.599999999999998 21.10000000000001 L 18.5 21.10000000000001 C 18.9 21.10000000000001 19.3 20.90000000000001 19.5 20.70000000000001 C 19.8 20.40000000000001 19.9 20.10000000000001 19.9 19.70000000000001 C 19.9 18.90000000000001 19.299999999999997 18.30000000000001 18.599999999999998 18.20000000000001 L 18.499999999999996 18.20000000000001 L 18.299999999999997 18.20000000000001 L 4 18.20000000000001 C 3.2 18.20000000000001 2.5 17.50000000000001 2.5 16.70000000000001 C 2.5 16.30000000000001 2.7 15.90000000000001 2.9 15.70000000000001 C 3.1999999999999997 15.40000000000001 3.5 15.30000000000001 3.9 15.30000000000001 L 13.700000000000001 15.30000000000001 C 14.100000000000001 15.30000000000001 14.4 15.10000000000001 14.600000000000001 14.90000000000001 C 14.800000000000002 14.700000000000008 14.900000000000002 14.500000000000009 15.000000000000002 14.30000000000001 C 15.200000000000001 13.30000000000001 14.400000000000002 12.40000000000001 13.400000000000002 12.40000000000001 L 10.800000000000002 12.40000000000001 C 10.000000000000002 12.40000000000001 9.300000000000002 11.70000000000001 9.300000000000002 10.90000000000001 C 9.300000000000002 10.500000000000009 9.500000000000002 10.100000000000009 9.700000000000003 9.90000000000001 C 10.000000000000004 9.600000000000009 10.300000000000002 9.500000000000009 10.700000000000003 9.500000000000009 L 18.900000000000002 9.500000000000009 C 19.000000000000004 9.500000000000009 19.000000000000004 9.500000000000009 19.000000000000004 9.600000000000009 L 24.9 35.4 z" stroke-linecap="round" />
</g>
<g transform="matrix(1 0 0 1 141.8 258.45)" id="63re1hkkntOmvJTSrFivw"  >
<path style="stroke: none; stroke-width: 1; stroke-dasharray: none; stroke-linecap: butt; stroke-dashoffset: 0; stroke-linejoin: miter; stroke-miterlimit: 4; fill: rgb(1,103,243); fill-rule: nonzero; opacity: 1;" vector-effect="non-scaling-stroke"  transform=" translate(-14.3, -34.05)" d="M 17.3 34.1 C 17.3 34.5 17.1 34.9 16.900000000000002 35.1 C 16.6 35.4 16.3 35.5 15.900000000000002 35.5 L 12.800000000000002 35.5 C 12.000000000000002 35.5 11.300000000000002 34.9 11.300000000000002 34 C 11.300000000000002 33.6 11.500000000000002 33.2 11.700000000000003 33 C 12.000000000000004 32.7 12.300000000000002 32.6 12.700000000000003 32.6 L 15.800000000000002 32.6 C 16.7 32.7 17.3 33.4 17.3 34.1 z" stroke-linecap="round" />
</g>
<g transform="matrix(1 0 0 1 135.4 246.9)" id="4VHaIHduW7Q7ibBeGEanM"  >
<path style="stroke: none; stroke-width: 1; stroke-dasharray: none; stroke-linecap: butt; stroke-dashoffset: 0; stroke-linejoin: miter; stroke-miterlimit: 4; fill: rgb(1,103,243); fill-rule: nonzero; opacity: 1;" vector-effect="non-scaling-stroke"  transform=" translate(-7.9, -22.5)" d="M 10.8 22.5 C 10.8 22.9 10.600000000000001 23.3 10.4 23.5 C 10.200000000000001 23.8 9.8 23.9 9.4 23.9 L 6.4 23.9 C 5.7 24 5 23.3 5 22.5 C 5 22.1 5.2 21.7 5.4 21.5 C 5.7 21.2 6 21.1 6.4 21.1 L 9.4 21.1 C 10.2 21.1 10.8 21.8 10.8 22.5 z" stroke-linecap="round" />
</g>
<g transform="matrix(1 0 0 1 209.2 249.15)" id="tQjoojVLdiDn9bMrLNeC5"  >
<path style="stroke: none; stroke-width: 1; stroke-dasharray: none; stroke-linecap: butt; stroke-dashoffset: 0; stroke-linejoin: miter; stroke-miterlimit: 4; fill: rgb(1,103,243); fill-rule: nonzero; opacity: 1;" vector-effect="non-scaling-stroke"  transform=" translate(-81.7, -24.75)" d="M 82.1 37.6 C 80.3 37.6 78.6 37.300000000000004 77.19999999999999 36.6 C 75.69999999999999 36 74.49999999999999 35 73.6 33.800000000000004 C 72.7 32.60000000000001 72.1 31.200000000000003 71.8 29.500000000000004 L 76.6 28.800000000000004 C 76.89999999999999 30.200000000000003 77.6 31.300000000000004 78.69999999999999 32.1 C 79.79999999999998 32.9 80.99999999999999 33.2 82.29999999999998 33.2 C 83.09999999999998 33.2 83.79999999999998 33.1 84.49999999999999 32.800000000000004 C 85.19999999999999 32.6 85.79999999999998 32.2 86.29999999999998 31.700000000000003 C 86.79999999999998 31.200000000000003 86.99999999999999 30.700000000000003 86.99999999999999 30.000000000000004 C 86.99999999999999 29.800000000000004 86.99999999999999 29.500000000000004 86.89999999999999 29.300000000000004 C 86.8 29.100000000000005 86.69999999999999 28.800000000000004 86.49999999999999 28.600000000000005 C 86.29999999999998 28.400000000000006 86.09999999999998 28.200000000000006 85.79999999999998 28.000000000000004 C 85.49999999999999 27.8 85.09999999999998 27.700000000000003 84.59999999999998 27.500000000000004 L 78.19999999999997 25.600000000000005 C 77.69999999999997 25.500000000000004 77.19999999999997 25.300000000000004 76.49999999999997 25.000000000000004 C 75.89999999999998 24.700000000000003 75.29999999999997 24.400000000000002 74.69999999999997 23.900000000000002 C 74.09999999999998 23.400000000000002 73.59999999999998 22.8 73.19999999999997 22.1 C 72.79999999999997 21.400000000000002 72.59999999999998 20.400000000000002 72.59999999999998 19.200000000000003 C 72.59999999999998 17.6 72.99999999999999 16.200000000000003 73.79999999999998 15.100000000000003 C 74.59999999999998 14.000000000000004 75.69999999999999 13.200000000000003 77.09999999999998 12.700000000000003 C 78.49999999999997 12.200000000000003 79.99999999999999 11.900000000000002 81.69999999999997 11.900000000000002 C 83.39999999999996 11.900000000000002 84.89999999999998 12.200000000000003 86.19999999999997 12.800000000000002 C 87.49999999999997 13.400000000000002 88.59999999999998 14.200000000000003 89.49999999999997 15.200000000000003 C 90.39999999999996 16.200000000000003 90.99999999999997 17.6 91.39999999999998 19.1 L 86.39999999999998 20 C 86.19999999999997 19.2 85.89999999999998 18.5 85.39999999999998 18 C 84.89999999999998 17.5 84.29999999999998 17 83.69999999999997 16.8 C 82.99999999999997 16.5 82.29999999999997 16.400000000000002 81.59999999999998 16.3 C 80.89999999999998 16.3 80.19999999999997 16.400000000000002 79.49999999999999 16.6 C 78.89999999999999 16.8 78.29999999999998 17.1 77.89999999999999 17.6 C 77.49999999999999 18 77.3 18.5 77.3 19.1 C 77.3 19.6 77.5 20.1 77.8 20.400000000000002 C 78.1 20.700000000000003 78.5 21.000000000000004 79 21.200000000000003 C 79.5 21.400000000000002 80 21.6 80.5 21.700000000000003 L 84.8 22.900000000000002 C 85.39999999999999 23.1 86.1 23.3 86.89999999999999 23.6 C 87.69999999999999 23.900000000000002 88.39999999999999 24.3 89.1 24.8 C 89.8 25.3 90.39999999999999 25.900000000000002 90.89999999999999 26.8 C 91.39999999999999 27.6 91.6 28.6 91.6 29.900000000000002 C 91.6 31.200000000000003 91.3 32.400000000000006 90.8 33.400000000000006 C 90.2 34.400000000000006 89.5 35.2 88.6 35.800000000000004 C 87.69999999999999 36.400000000000006 86.6 36.900000000000006 85.39999999999999 37.2 C 84.19999999999999 37.5 83.3 37.6 82.1 37.6 z" stroke-linecap="round" />
</g>
<g transform="matrix(1 0 0 1 231.15 249.25)" id="cM60WQKjK0zpVjwMdsZ8T"  >
<path style="stroke: none; stroke-width: 1; stroke-dasharray: none; stroke-linecap: butt; stroke-dashoffset: 0; stroke-linejoin: miter; stroke-miterlimit: 4; fill: rgb(1,103,243); fill-rule: nonzero; opacity: 1;" vector-effect="non-scaling-stroke"  transform=" translate(-103.65, -24.85)" d="M 112.3 26.8 L 112.3 37.1 L 107.6 37.1 L 107.6 28.400000000000002 C 107.6 28.000000000000004 107.6 27.400000000000002 107.5 26.8 C 107.5 26.2 107.3 25.5 107.1 24.8 C 106.89999999999999 24.1 106.5 23.6 105.89999999999999 23.1 C 105.39999999999999 22.700000000000003 104.6 22.400000000000002 103.6 22.400000000000002 C 103.19999999999999 22.400000000000002 102.8 22.500000000000004 102.3 22.6 C 101.8 22.7 101.39999999999999 23 101 23.3 C 100.6 23.7 100.3 24.2 100 24.900000000000002 C 99.7 25.600000000000005 99.6 26.500000000000004 99.6 27.700000000000003 L 99.6 37 L 95 37 L 95 12.6 L 99.1 12.6 L 99.1 20.6 C 99.5 20.1 100 19.700000000000003 100.6 19.3 C 101.8 18.5 103.3 18.1 105.1 18.1 C 106.5 18.1 107.69999999999999 18.400000000000002 108.6 18.8 C 109.5 19.3 110.19999999999999 19.900000000000002 110.69999999999999 20.6 C 111.19999999999999 21.400000000000002 111.6 22.1 111.79999999999998 23 C 111.99999999999999 23.8 112.19999999999999 24.5 112.19999999999999 25.2 C 112.2 26 112.3 26.5 112.3 26.8 z" stroke-linecap="round" />
</g>
<g transform="matrix(1 0 0 1 251.75 252.35)" id="NlEbXT2ihNQDU1AhNMgse"  >
<path style="stroke: none; stroke-width: 1; stroke-dasharray: none; stroke-linecap: butt; stroke-dashoffset: 0; stroke-linejoin: miter; stroke-miterlimit: 4; fill: rgb(1,103,243); fill-rule: nonzero; opacity: 1;" vector-effect="non-scaling-stroke"  transform=" translate(-124.25, -27.95)" d="M 124.3 37.6 C 122.39999999999999 37.6 120.8 37.2 119.39999999999999 36.4 C 117.99999999999999 35.599999999999994 116.89999999999999 34.4 116.1 33 C 115.3 31.5 114.89999999999999 29.9 114.89999999999999 28 C 114.89999999999999 26.1 115.3 24.4 116.1 22.9 C 116.89999999999999 21.4 118 20.299999999999997 119.39999999999999 19.5 C 120.79999999999998 18.700000000000003 122.39999999999999 18.3 124.19999999999999 18.3 C 126.1 18.3 127.69999999999999 18.7 129.1 19.5 C 130.5 20.3 131.6 21.5 132.4 22.9 C 133.20000000000002 24.4 133.6 26 133.6 27.9 C 133.6 29.799999999999997 133.2 31.5 132.4 33 C 131.60000000000002 34.5 130.5 35.6 129.1 36.4 C 127.8 37.2 126.1 37.6 124.3 37.6 z M 124.3 33.3 C 125.8 33.3 126.89999999999999 32.8 127.6 31.799999999999997 C 128.29999999999998 30.799999999999997 128.7 29.499999999999996 128.7 27.9 C 128.7 26.3 128.29999999999998 25 127.6 24 C 126.89999999999999 23 125.8 22.5 124.3 22.5 C 123.3 22.5 122.5 22.7 121.8 23.2 C 121.2 23.7 120.7 24.3 120.39999999999999 25.099999999999998 C 120.09999999999998 25.899999999999995 119.89999999999999 26.799999999999997 119.89999999999999 27.9 C 119.89999999999999 29.5 120.3 30.9 120.99999999999999 31.799999999999997 C 121.8 32.8 122.8 33.3 124.3 33.3 z" stroke-linecap="round" />
</g>
<g transform="matrix(1 0 0 1 273.05 256.1)" id="_--spmHQTDiLXvtv5SkQM"  >
<path style="stroke: none; stroke-width: 1; stroke-dasharray: none; stroke-linecap: butt; stroke-dashoffset: 0; stroke-linejoin: miter; stroke-miterlimit: 4; fill: rgb(1,103,243); fill-rule: nonzero; opacity: 1;" vector-effect="non-scaling-stroke"  transform=" translate(-145.55, -31.7)" d="M 153.1 22.9 C 152.4 21.4 151.4 20.299999999999997 150.1 19.4 C 148.79999999999998 18.599999999999998 147.29999999999998 18.099999999999998 145.5 18.099999999999998 C 143.70000000000002 18.099999999999998 142.3 18.499999999999996 141.1 19.4 C 141 19.5 140.9 19.599999999999998 140.79999999999998 19.7 L 140.79999999999998 18.7 L 136.7 18.7 L 136.7 45.3 L 141.39999999999998 45.3 L 141.39999999999998 36.5 C 142.59999999999997 37.3 144.09999999999997 37.7 145.79999999999998 37.7 C 147.5 37.7 148.99999999999997 37.300000000000004 150.29999999999998 36.400000000000006 C 151.6 35.50000000000001 152.6 34.400000000000006 153.29999999999998 32.900000000000006 C 153.99999999999997 31.400000000000006 154.39999999999998 29.800000000000004 154.39999999999998 27.900000000000006 C 154.2 26 153.9 24.4 153.1 22.9 z M 148.9 30.7 C 148.6 31.5 148.1 32.2 147.5 32.7 C 146.9 33.2 146 33.5 145 33.5 C 144 33.5 143.1 33.3 142.5 32.8 C 141.9 32.3 141.4 31.699999999999996 141.2 30.799999999999997 C 140.89999999999998 29.999999999999996 140.79999999999998 28.999999999999996 140.79999999999998 27.9 C 140.79999999999998 26.8 140.89999999999998 25.799999999999997 141.2 25 C 141.5 24.2 141.89999999999998 23.5 142.5 23 C 143.10000000000002 22.5 143.9 22.3 144.9 22.3 C 145.9 22.3 146.8 22.6 147.4 23.1 C 148.1 23.6 148.6 24.3 148.9 25.1 C 149.20000000000002 26 149.4 26.900000000000002 149.4 27.900000000000002 C 149.3 29 149.2 29.9 148.9 30.7 z" stroke-linecap="round" />
</g>
<g transform="matrix(1 0 0 1 198.8 250)" id="Xxn5RibIEw5wbz1Onx_97"  >
<path style="stroke: rgb(0,0,0); stroke-width: 1; stroke-dasharray: none; stroke-linecap: butt; stroke-dashoffset: 0; stroke-linejoin: miter; stroke-miterlimit: 4; fill: rgb(255,255,255); fill-opacity: 0; fill-rule: nonzero; opacity: 1;" vector-effect="non-scaling-stroke"  transform=" translate(0, 0)" d="M 0 0" stroke-linecap="round" />
</g>
<g transform="matrix(1 0 0 1 322 250.5)" style="" id="VjCtYbFgg_shRpl7-D0e9"  >
		<text xml:space="preserve" font-family="Open Sans" font-size="35" font-style="normal" font-weight="700" line-height="1" style="stroke: rgb(0,0,0); stroke-width: 2; stroke-dasharray: none; stroke-linecap: butt; stroke-dashoffset: 0; stroke-linejoin: miter; stroke-miterlimit: 4; fill: rgb(0,0,0); fill-rule: nonzero; opacity: 1; white-space: pre;" ><tspan x="-38.6" y="10.99" >TEST</tspan></text>
</g>
</svg>